<svg width="60" height="60" viewBox="0 0 60 60" fill="none" xmlns="http://www.w3.org/2000/svg">
<g filter="url(#filter0_d_345_801)">
<rect x="7" y="5" width="46" height="46" rx="23" fill="#E23A3A"/>
<rect x="7" y="5" width="46" height="46" rx="23" stroke="white" stroke-width="5"/>
<g clip-path="url(#clip0_345_801)">
<path d="M25.3555 30.7803C22.3698 30.7803 19.3864 30.7803 16.4008 30.7803C15.4451 30.7803 15.2715 30.5276 15.5769 29.6005C16.9258 25.5032 20.2981 22.9811 24.6195 22.7812C27.3877 22.6538 29.9361 23.2294 32.2033 24.8947C33.9433 26.1733 34.7957 27.9901 35.4153 29.9674C35.5471 30.387 35.3933 30.6375 34.9847 30.7275C34.765 30.7759 34.5343 30.7978 34.3102 30.8C31.3268 30.8044 28.3411 30.8022 25.3577 30.8022C25.3577 30.7956 25.3577 30.789 25.3577 30.7803H25.3555Z" fill="white"/>
<path d="M36.3381 38.5684C36.259 36.5253 36.1887 34.5568 36.1009 32.5906C36.0767 32.0413 36.0943 31.5602 36.404 31.0351C36.6259 30.6594 36.6106 30.0465 36.4963 29.5895C36.0284 27.7177 34.9958 26.1645 33.6051 24.8398C33.436 24.6794 33.2844 24.5014 33.0186 24.2202H43.4826C43.4936 24.4355 43.5133 24.6552 43.5133 24.8749C43.5133 29.1458 43.5133 33.4144 43.5133 37.6853C43.5133 38.5662 43.4035 38.6234 42.4984 38.5948C41.2131 38.5531 39.9279 38.5728 38.6427 38.5684C37.9089 38.5662 37.1752 38.5684 36.3381 38.5684Z" fill="white"/>
<path d="M39.9323 19.6155C41.2504 19.6155 42.4873 19.644 43.722 19.6045C44.3745 19.5825 44.5788 19.8527 44.5568 20.4547C44.5326 21.1204 44.5458 21.786 44.5502 22.4517C44.5546 22.924 44.3613 23.1745 43.856 23.1745C40.1827 23.1679 36.5116 23.1679 32.8383 23.1745C32.3484 23.1745 32.1133 22.968 32.1177 22.4781C32.1221 21.7443 32.1221 21.0083 32.1177 20.2745C32.1155 19.778 32.3528 19.6001 32.8471 19.6067C34.5212 19.6264 36.1953 19.6155 37.955 19.6155C38.1483 18.5763 38.3636 17.5547 38.5218 16.5266C38.6119 15.9444 38.8733 15.5665 39.4292 15.3556C40.4991 14.9513 41.558 14.5164 42.6235 14.1033C43.2496 13.8617 43.7483 14.0506 43.9878 14.5998C44.2207 15.1337 43.9768 15.795 43.4078 16.0366C42.5664 16.3925 41.692 16.6737 40.8616 17.056C40.6067 17.1747 40.3585 17.4888 40.275 17.7634C40.1058 18.328 40.0509 18.9256 39.9301 19.6155H39.9323Z" fill="white"/>
<path d="M25.4849 38.7969C28.3804 38.7969 31.276 38.7925 34.1716 38.8035C34.4594 38.8035 34.7867 38.8452 35.0196 38.9902C35.2217 39.1176 35.4041 39.4032 35.4414 39.6427C35.5337 40.2337 33.9277 41.9934 33.3258 41.9934C28.0641 41.9978 22.8024 42.0044 17.5385 41.978C17.2463 41.978 16.9014 41.7539 16.6795 41.5365C16.3214 41.1871 15.9985 40.7807 15.7502 40.3479C15.5855 40.0623 15.4185 39.6053 15.5393 39.3769C15.6865 39.1 16.1259 38.9616 16.4576 38.8057C16.5895 38.7441 16.774 38.7947 16.9344 38.7947C19.7838 38.7947 22.6332 38.7947 25.4827 38.7947L25.4849 38.7969Z" fill="white"/>
<path d="M25.6456 32.2698C28.3786 32.2698 31.1138 32.2698 33.8468 32.2698C34.8024 32.2698 35.2352 32.6674 35.2484 33.5484C35.2616 34.4711 34.6882 35.0796 33.7852 35.0774C28.3412 35.0709 22.8972 35.0577 17.451 35.0599C16.871 35.0599 16.3943 34.9346 16.1702 34.3525C15.9329 33.7395 15.9153 33.1002 16.3987 32.6169C16.6206 32.395 17.0424 32.2851 17.3741 32.2807C20.1313 32.2544 22.8884 32.2654 25.6434 32.2676L25.6456 32.2698Z" fill="white"/>
<path d="M16.0688 37.9709C16.2204 36.8548 16.8444 36.2243 17.7934 35.9453C18.9996 35.5894 20.0585 35.886 20.9263 36.901C21.537 36.1958 22.2906 35.7959 23.2045 35.8047C24.0987 35.8135 24.8412 36.1892 25.4454 36.9251C26.0539 36.1936 26.8053 35.7915 27.7258 35.8047C28.6156 35.8179 29.3581 36.1914 29.9491 36.8966C30.8762 35.8618 31.9769 35.5477 33.2599 36.0156C34.1475 36.3386 34.6945 36.9581 34.8175 37.9687C34.1431 37.9841 33.5169 38.2521 33.0578 37.3975C32.7019 36.7318 31.5397 36.8505 31.2124 37.5535C31.0036 38.0016 30.7334 38.0258 30.3555 38.0126C30.0568 38.0016 29.758 37.9951 29.4592 38.0126C29.1099 38.0346 28.9034 37.9445 28.7122 37.5908C28.2728 36.778 27.1085 36.7582 26.6911 37.571C26.4867 37.9687 26.2626 38.0302 25.9002 38.0104C25.6255 37.9951 25.3487 37.9951 25.0741 38.0104C24.6677 38.0346 24.3953 37.9709 24.1646 37.5315C23.7757 36.7911 22.5894 36.7758 22.2203 37.5117C21.9742 37.9995 21.6688 38.0346 21.2404 38.0126C20.9417 37.9973 20.6319 38.0588 20.3485 37.9929C20.131 37.9423 19.8739 37.7973 19.7553 37.615C19.2852 36.89 18.1581 36.7077 17.8022 37.4304C17.4771 38.0895 17.0289 38.0016 16.5236 38.006C16.3896 38.006 16.2556 37.9863 16.071 37.9709H16.0688Z" fill="white"/>
</g>
</g>
<defs>
<filter id="filter0_d_345_801" x="0.5" y="0.5" width="59" height="59" filterUnits="userSpaceOnUse" color-interpolation-filters="sRGB">
<feFlood flood-opacity="0" result="BackgroundImageFix"/>
<feColorMatrix in="SourceAlpha" type="matrix" values="0 0 0 0 0 0 0 0 0 0 0 0 0 0 0 0 0 0 127 0" result="hardAlpha"/>
<feOffset dy="2"/>
<feGaussianBlur stdDeviation="2"/>
<feComposite in2="hardAlpha" operator="out"/>
<feColorMatrix type="matrix" values="0 0 0 0 0 0 0 0 0 0 0 0 0 0 0 0 0 0 0.25 0"/>
<feBlend mode="normal" in2="BackgroundImageFix" result="effect1_dropShadow_345_801"/>
<feBlend mode="normal" in="SourceGraphic" in2="effect1_dropShadow_345_801" result="shape"/>
</filter>
<clipPath id="clip0_345_801">
<rect width="29.1182" height="28" fill="white" transform="translate(15.4409 14)"/>
</clipPath>
</defs>
</svg>
