<svg width="60" height="60" viewBox="0 0 60 60" fill="none" xmlns="http://www.w3.org/2000/svg">
<g filter="url(#filter0_d_345_813)">
<rect x="7" y="5" width="46" height="46" rx="23" fill="#C84FCE"/>
<rect x="7" y="5" width="46" height="46" rx="23" stroke="white" stroke-width="5"/>
<path d="M39.0343 21H36.6991V22.1648C36.6991 23.45 35.6546 24.5 34.364 24.5C33.0788 24.5 32.0288 23.4555 32.0288 22.1648V21H27.364V22.1648C27.364 23.45 26.3194 24.5 25.0288 24.5C23.7437 24.5 22.6937 23.4555 22.6937 22.1648V21H20.3694C20.3694 32.6648 19.2046 42 19.2046 42H40.2046C40.1991 42 39.0343 32.6648 39.0343 21ZM25.0343 23.3352C25.6796 23.3352 26.1991 22.8156 26.1991 22.1703V19.8352C26.1991 17.8992 27.7632 16.3352 29.6991 16.3352C31.6351 16.3352 33.1991 17.8992 33.1991 19.8352V22.1703C33.1991 22.8156 33.7187 23.3352 34.364 23.3352C35.0093 23.3352 35.5288 22.8156 35.5288 22.1703V19.8352C35.5343 16.6141 32.9202 14 29.6991 14C26.478 14 23.864 16.6141 23.864 19.8352V22.1703C23.8694 22.8102 24.389 23.3352 25.0343 23.3352Z" fill="white"/>
</g>
<defs>
<filter id="filter0_d_345_813" x="0.5" y="0.5" width="59" height="59" filterUnits="userSpaceOnUse" color-interpolation-filters="sRGB">
<feFlood flood-opacity="0" result="BackgroundImageFix"/>
<feColorMatrix in="SourceAlpha" type="matrix" values="0 0 0 0 0 0 0 0 0 0 0 0 0 0 0 0 0 0 127 0" result="hardAlpha"/>
<feOffset dy="2"/>
<feGaussianBlur stdDeviation="2"/>
<feComposite in2="hardAlpha" operator="out"/>
<feColorMatrix type="matrix" values="0 0 0 0 0 0 0 0 0 0 0 0 0 0 0 0 0 0 0.25 0"/>
<feBlend mode="normal" in2="BackgroundImageFix" result="effect1_dropShadow_345_813"/>
<feBlend mode="normal" in="SourceGraphic" in2="effect1_dropShadow_345_813" result="shape"/>
</filter>
</defs>
</svg>
