<svg width="60" height="60" viewBox="0 0 60 60" fill="none" xmlns="http://www.w3.org/2000/svg">
<g filter="url(#filter0_d_345_823)">
<rect x="7" y="5" width="46" height="46" rx="23" fill="#4D2AE6"/>
<rect x="7" y="5" width="46" height="46" rx="23" stroke="white" stroke-width="5"/>
<path d="M19.5 35.0001V29.1667C19.5 28.5479 19.7458 27.9544 20.1834 27.5168C20.621 27.0792 21.2145 26.8334 21.8333 26.8334V23.3334C21.8333 22.0957 22.325 20.9088 23.2002 20.0336C24.0753 19.1584 25.2623 18.6667 26.5 18.6667H33.5C34.7377 18.6667 35.9247 19.1584 36.7998 20.0336C37.675 20.9088 38.1667 22.0957 38.1667 23.3334V26.8334C38.7855 26.8334 39.379 27.0792 39.8166 27.5168C40.2542 27.9544 40.5 28.5479 40.5 29.1667V35.0001C40.5 35.6189 40.2542 36.2124 39.8166 36.65C39.379 37.0876 38.7855 37.3334 38.1667 37.3334C37.5478 37.3334 36.9543 37.0876 36.5168 36.65C36.0792 36.2124 35.8333 35.6189 35.8333 35.0001H24.1667C24.1667 35.6189 23.9208 36.2124 23.4832 36.65C23.0457 37.0876 22.4522 37.3334 21.8333 37.3334C21.2145 37.3334 20.621 37.0876 20.1834 36.65C19.7458 36.2124 19.5 35.6189 19.5 35.0001ZM26.5 21.0001C25.8812 21.0001 25.2877 21.2459 24.8501 21.6835C24.4125 22.1211 24.1667 22.7146 24.1667 23.3334V26.8334H35.8333V23.3334C35.8333 22.7146 35.5875 22.1211 35.1499 21.6835C34.7123 21.2459 34.1188 21.0001 33.5 21.0001H26.5ZM23 31.5001C23.3094 31.5001 23.6062 31.3772 23.825 31.1584C24.0437 30.9396 24.1667 30.6428 24.1667 30.3334C24.1667 30.024 24.0437 29.7272 23.825 29.5085C23.6062 29.2897 23.3094 29.1667 23 29.1667C22.6906 29.1667 22.3938 29.2897 22.175 29.5085C21.9562 29.7272 21.8333 30.024 21.8333 30.3334C21.8333 30.6428 21.9562 30.9396 22.175 31.1584C22.3938 31.3772 22.6906 31.5001 23 31.5001ZM37 31.5001C37.3094 31.5001 37.6062 31.3772 37.825 31.1584C38.0438 30.9396 38.1667 30.6428 38.1667 30.3334C38.1667 30.024 38.0438 29.7272 37.825 29.5085C37.6062 29.2897 37.3094 29.1667 37 29.1667C36.6906 29.1667 36.3938 29.2897 36.175 29.5085C35.9562 29.7272 35.8333 30.024 35.8333 30.3334C35.8333 30.6428 35.9562 30.9396 36.175 31.1584C36.3938 31.3772 36.6906 31.5001 37 31.5001Z" fill="white"/>
</g>
<defs>
<filter id="filter0_d_345_823" x="0.5" y="0.5" width="59" height="59" filterUnits="userSpaceOnUse" color-interpolation-filters="sRGB">
<feFlood flood-opacity="0" result="BackgroundImageFix"/>
<feColorMatrix in="SourceAlpha" type="matrix" values="0 0 0 0 0 0 0 0 0 0 0 0 0 0 0 0 0 0 127 0" result="hardAlpha"/>
<feOffset dy="2"/>
<feGaussianBlur stdDeviation="2"/>
<feComposite in2="hardAlpha" operator="out"/>
<feColorMatrix type="matrix" values="0 0 0 0 0 0 0 0 0 0 0 0 0 0 0 0 0 0 0.25 0"/>
<feBlend mode="normal" in2="BackgroundImageFix" result="effect1_dropShadow_345_823"/>
<feBlend mode="normal" in="SourceGraphic" in2="effect1_dropShadow_345_823" result="shape"/>
</filter>
</defs>
</svg>
